<svg xmlns="http://www.w3.org/2000/svg" viewBox="0 0 11.98 11.96">
    <path d="M11.86,3a.42.42,0,0,0-.32-.16H9.23V4.09a1.08,1.08,0,0,1-2.16,0V2.86H4.91V4.09a1.06,1.06,0,0,1-1.08,1,1.05,1.05,0,0,1-1.08-1V2.86H.44A.42.42,0,0,0,.11,3,.5.5,0,0,0,0,3.38l.78,7.13A1.44,1.44,0,0,0,2.19,12H9.78a1.45,1.45,0,0,0,1.42-1.45L12,3.38A.43.43,0,0,0,11.86,3Z" transform="translate(0)"/>
    <path d="M3.83,4.5a.42.42,0,0,0,.43-.41V1.84c0-.63.67-1,1.3-1H6.64a1,1,0,0,1,1.07,1V4.09a.44.44,0,0,0,.87,0V1.84A1.83,1.83,0,0,0,6.64,0H5.56A2,2,0,0,0,3.4,1.84V4.09A.42.42,0,0,0,3.83,4.5Z" transform="translate(0)"/>
</svg>