<svg xmlns="http://www.w3.org/2000/svg" viewBox="0 0 32 32">
    <path class="cls-1" d="M20.92,16A4.94,4.94,0,0,1,11,16a4.81,4.81,0,0,1,.14-1.14h-.9V21.7h11.4V14.86h-.9A5.39,5.39,0,0,1,20.92,16Z"/>
    <path class="cls-1" d="M16,18.66A2.66,2.66,0,1,0,13.32,16,2.67,2.67,0,0,0,16,18.66Z"/>
    <rect class="cls-1" x="18.64" y="10.3" width="3.04" height="3.04"/>
    <path class="cls-1" d="M16,0A16,16,0,1,0,32,16,16,16,0,0,0,16,0Zm8,21.7A2.28,2.28,0,0,1,21.68,24H10.28A2.29,2.29,0,0,1,8,21.7V10.3A2.29,2.29,0,0,1,10.28,8H21.67A2.29,2.29,0,0,1,24,10.3V21.7Z"/>
</svg>