<svg  xmlns="http://www.w3.org/2000/svg" viewBox="0 0 32 32">
        <path class="cls-1" d="M16,0A16,16,0,1,0,32,16,16,16,0,0,0,16,0Zm7.94,12.81c-.25,6.52-3.46,10.83-11,10.7h-.48c-.45,0-4.55-.44-5.35-1.82a7.32,7.32,0,0,0,5.12-1.14c-1.05-.29-2.92-.46-3.25-2.85a2.31,2.31,0,0,0,1.3.12C9,17,7.53,16.3,7.61,14.17a2.25,2.25,0,0,0,1.46.46c-.77-.23-2.15-3.24-1-4.78,2,1.79,4.07,3.48,7.8,3.64.23-2.21,1.24-3.7,3.17-4.32A3.61,3.61,0,0,1,23,10.31c.74-.23,1.45-.47,2.19-.69a2.21,2.21,0,0,1-.93,1.71,1.77,1.77,0,0,0,1.42-.47A2.9,2.9,0,0,1,23.94,12.81Z"/>
</svg>